<?xml version="1.0" encoding="UTF-8"?>
<svg xmlns="http://www.w3.org/2000/svg" xmlns:xlink="http://www.w3.org/1999/xlink" width="801pt" height="150.3pt" viewBox="0 0 801 150.3" version="1.1">
<defs>
<clipPath id="clip1">
  <path d="M 469 96 L 658 96 L 658 150.300781 L 469 150.300781 Z M 469 96 "/>
</clipPath>
</defs>
<g id="surface1">
<path style=" stroke:none;fill-rule:evenodd;fill:rgb(89.0625%,0%,8.616638%);fill-opacity:1;" d="M 297.433594 96.757813 L 364.296875 96.757813 C 372.820313 96.757813 373.621094 103.730469 366.078125 112.25 L 362.839844 115.914063 C 355.296875 124.433594 342.15625 131.40625 333.632813 131.40625 L 269.382813 131.40625 C 260.863281 131.40625 260.0625 124.433594 267.601563 115.914063 L 273.160156 109.632813 C 279.425781 102.550781 290.347656 96.757813 297.433594 96.757813 Z M 315.597656 101.949219 L 334.839844 101.949219 C 336.835938 101.949219 337.339844 103.582031 335.964844 105.578125 L 324.21875 122.585938 C 322.84375 124.582031 320.085938 126.214844 318.089844 126.214844 L 298.847656 126.214844 C 296.851563 126.214844 296.34375 124.582031 297.722656 122.585938 L 309.464844 105.578125 C 310.839844 103.582031 313.597656 101.949219 315.597656 101.949219 Z M 315.597656 101.949219 "/>
<path style=" stroke:none;fill-rule:evenodd;fill:rgb(89.0625%,0%,8.616638%);fill-opacity:1;" d="M 406.171875 96.757813 L 473.039063 96.757813 C 481.5625 96.757813 482.363281 103.730469 474.820313 112.25 L 471.578125 115.914063 C 464.039063 124.433594 450.894531 131.40625 442.378906 131.40625 L 378.128906 131.40625 C 369.601563 131.40625 368.800781 124.433594 376.34375 115.914063 L 381.898438 109.632813 C 388.171875 102.550781 399.089844 96.757813 406.171875 96.757813 Z M 424.339844 101.949219 L 443.574219 101.949219 C 445.574219 101.949219 446.078125 103.582031 444.699219 105.578125 L 432.964844 122.585938 C 431.585938 124.582031 428.824219 126.214844 426.828125 126.214844 L 407.589844 126.214844 C 405.589844 126.214844 405.089844 124.582031 406.464844 122.585938 L 418.203125 105.578125 C 419.585938 103.582031 422.339844 101.949219 424.339844 101.949219 Z M 424.339844 101.949219 "/>
<g clip-path="url(#clip1)" clip-rule="nonzero">
<path style=" stroke:none;fill-rule:evenodd;fill:rgb(89.0625%,0%,8.616638%);fill-opacity:1;" d="M 617.664063 96.855469 L 486.769531 96.757813 L 489.921875 99.714844 C 490.085938 99.84375 492.152344 101.34375 492.46875 101.570313 C 493.089844 102.007813 497.65625 104.75 497.746094 104.78125 C 503.121094 106.667969 564.023438 105.5 572.9375 105.492188 C 554.746094 114.164063 518.84375 111.128906 494.183594 111.128906 C 488.054688 120.316406 473.007813 138.324219 469.238281 146.175781 L 510.03125 145.921875 C 512.769531 140.773438 514.710938 138.550781 518.605469 132.574219 C 520.019531 130.40625 521.5625 127.796875 523.195313 125.710938 C 525.300781 122.636719 526.003906 122.3125 527.699219 121.394531 C 536.683594 121.585938 548.460938 128.660156 556.878906 131.9375 C 565.878906 135.441406 574.703125 139.199219 583.984375 143.386719 C 596.589844 149.074219 602.878906 148.46875 619.035156 148.734375 C 630.738281 148.925781 644.335938 149.988281 657.15625 150.277344 L 655.113281 148.882813 C 654.808594 148.703125 654.414063 148.453125 654.078125 148.269531 C 653.746094 148.089844 653.378906 147.902344 653.035156 147.734375 L 597.144531 127.429688 C 591.496094 125.460938 583.171875 122.796875 578.984375 120.109375 L 602.929688 112.632813 C 606.289063 111.050781 616.488281 102.488281 617.664063 96.855469 Z M 617.664063 96.855469 "/>
</g>
<path style=" stroke:none;fill-rule:evenodd;fill:rgb(89.0625%,0%,8.616638%);fill-opacity:1;" d="M 264.367188 102.949219 L 268.070313 96.757813 L 173.589844 96.757813 L 158.773438 116.476563 L 218.128906 116.476563 C 219.984375 116.476563 220.613281 117.699219 219.714844 118.957031 L 215.269531 125.183594 C 213.921875 127.078125 211.039063 127.589844 208.714844 127.589844 L 149.488281 127.589844 L 145.53125 131.40625 L 234.617188 131.40625 C 238.675781 131.40625 243.710938 130.457031 246.015625 127.117188 L 252.414063 117.859375 C 255.097656 113.980469 252.871094 110.652344 248.472656 110.652344 L 195.289063 110.652344 L 201.355469 102.949219 Z M 264.367188 102.949219 "/>
<path style=" stroke:none;fill-rule:evenodd;fill:rgb(76.951599%,77.734375%,78.514099%);fill-opacity:1;" d="M 251.335938 -0.00390625 C 204.335938 -0.00390625 157.328125 -0.00390625 110.328125 -0.00390625 C 104.761719 -0.00390625 99.300781 2.109375 94.210938 4.347656 L 25.589844 34.527344 C 19.921875 37.015625 14.835938 41.878906 12.355469 47.546875 L 2.433594 70.285156 C 0.0390625 75.777344 3.59375 77.832031 7.601563 77.832031 C 137.710938 77.832031 267.8125 77.832031 397.921875 77.832031 C 427.390625 77.832031 456.984375 71.238281 488.394531 57.988281 C 492.480469 56.261719 495.804688 51.371094 495.804688 46.933594 L 495.804688 24.988281 C 495.804688 17.757813 500.746094 13.769531 509.128906 11.183594 L 509.128906 77.832031 L 572.902344 77.832031 L 572.902344 11.371094 L 647.296875 11.371094 C 656.285156 11.371094 656.371094 14.957031 646.90625 19.160156 C 639.171875 22.597656 616.320313 24.910156 587.113281 26.757813 L 581.765625 41.222656 L 689.503906 77.832031 L 801.027344 85.453125 L 683.183594 41.855469 C 678.683594 40.191406 678.839844 36.238281 683.699219 35.257813 L 716.0625 28.753906 C 720.671875 27.828125 726.113281 26.25 728.566406 22.246094 L 739.03125 5.136719 C 741.105469 1.75 739.847656 -0.00390625 735.71875 -0.00390625 C 578.144531 -0.00390625 420.570313 -0.00390625 262.996094 -0.00390625 L 262.996094 59.929688 L 100.351563 59.929688 C 85.589844 59.929688 89.476563 52.433594 100.351563 47.519531 L 165.441406 18.109375 C 170.558594 15.796875 176.261719 14.394531 181.878906 14.394531 L 251.335938 14.394531 Z M 430.484375 11.183594 L 325.882813 11.183594 L 325.882813 60.210938 L 388.546875 60.210938 C 402.753906 60.210938 417.652344 53.257813 429.324219 47.8125 C 432.601563 46.28125 432.867188 42.664063 429.105469 42.664063 L 332.671875 42.664063 L 340.835938 26.113281 L 385.34375 26.113281 C 400.074219 26.113281 415.320313 22.808594 428.742188 17.734375 C 434.367188 15.605469 435.980469 11.183594 430.484375 11.183594 Z M 430.484375 11.183594 "/>
</g>
</svg>
